<svg width="640" height="640" viewBox="0 0 640 640" fill="none" xmlns="http://www.w3.org/2000/svg">
  <defs>
    <radialGradient id="glow" cx="0" cy="0" r="1" gradientUnits="userSpaceOnUse" gradientTransform="translate(320 320) rotate(90) scale(320)">
      <stop stop-color="#FFB14A"/>
      <stop offset="1" stop-color="#F7931A"/>
    </radialGradient>
  </defs>
  <circle cx="320" cy="320" r="280" fill="url(#glow)"/>
  <circle cx="320" cy="320" r="279" stroke="#FFD08A" stroke-opacity="0.35" stroke-width="2"/>
  <g transform="translate(160 120)">
    <path d="M206.579 180.726C228.951 169.472 241.413 151.649 238.188 126.69C233.788 92.5511 206.214 81.1307 168.153 77.7036L168.153 32L140.482 32L140.482 76.3592C133.219 76.3592 125.778 76.5224 118.38 76.6837L118.38 32L90.7282 32L90.7282 77.6761C84.7586 77.8062 78.9071 77.9356 73.1984 77.9356L73.2323 77.7969L35 77.7969L35 107.266C35 107.266 55.4786 106.879 55.0629 107.252C66.2805 107.252 69.9468 113.661 70.9967 119.2L70.9967 171.319C72.6524 171.36 74.7996 171.728 77.1758 172.711C75.2525 172.667 73.5101 172.632 71.9892 172.632L71.9892 245.692C71.1655 251.257 68.0669 259.6 55.8426 259.6C56.1899 260.093 35.7605 259.6 35.7605 259.6L28 292.925L64.1584 292.925C70.8872 292.925 77.5101 293.033 84.0034 293.077L84.0034 339L111.654 339L111.654 293.847C119.201 294.002 126.515 294.067 133.659 294.067L133.659 339L161.329 339L161.329 293.551C207.866 290.827 240.427 279.165 245.315 237.121C249.245 203.272 232.547 188.164 206.579 180.726ZM117.332 110.961C133.391 110.961 183.874 106.52 183.874 141.374C183.874 174.741 133.391 170.881 117.332 170.881L117.332 110.961ZM117.332 259.345L117.332 193.348C136.585 193.348 196.975 187.978 196.975 226.337C196.975 263.07 136.585 259.345 117.332 259.345Z" fill="#FFFFFF"/>
    <rect x="109" y="10" width="24" height="360" rx="8" fill="#FFFFFF"/>
    <rect x="156" y="10" width="24" height="360" rx="8" fill="#FFFFFF"/>
  </g>
</svg>
